# xmcd
#
# Track frame offsets:
#	150
#	43074
#	96969
#	133285
#	168056
#	202442
#	239777
#
# Disc length: 4484 seconds
#
# Revision: 1
# Processed by: cddbd v1.5.2PL0 Copyright (c) Steve Scherf et al.
# Submitted via: audiograbber 1.83.01
#
DISCID=6c118207
DTITLE=Grateful Dead - 93-03-28 Knickerbocker Arena, Albany NY
DYEAR=1900
DGENRE=
TTITLE0=Scarlet Begonias
TTITLE1=Fire On The Mountain
TTITLE2=Samson and Delilah
TTITLE3=Ship Of Fools
TTITLE4=Wave To The Wind
TTITLE5=Truckin
TTITLE6=Drums
EXTD=
EXTT0=
EXTT1=
EXTT2=
EXTT3=
EXTT4=
EXTT5=
EXTT6=
PLAYORDER=
